# xmcd
#
# Track frame offsets: 
#        182
#        18715
#        42200
#        61877
#        84045
#        106295
#        129170
#        148900
#        175235
#        195257
#
# Disc length: 2884 seconds
#
# Revision: 2
# Processed by: cddbd v1.5.2PL0 Copyright (c) Steve Scherf et al.
# Submitted via: ExactAudioCopy v1.0b3
#
DISCID=7a0b420a
DTITLE=Company - Devotion
DYEAR=1993
DGENRE=R&B
TTITLE0=Angel
TTITLE1=Love's In Need Of Love
TTITLE2=More Today Than Yesterday
TTITLE3=Sweeter Than Sweet
TTITLE4=Devotion
TTITLE5=A Love That's Real
TTITLE6=U Make It Right
TTITLE7=Superman
TTITLE8=Someone's Praying For You
TTITLE9=How You Make Me Feel So Good
EXTD=
EXTT0=
EXTT1=
EXTT2=
EXTT3=
EXTT4=
EXTT5=
EXTT6=
EXTT7=
EXTT8=
EXTT9=
PLAYORDER=
